<svg width="16" height="18" viewBox="0 0 16 18" fill="none" xmlns="http://www.w3.org/2000/svg">
    <path
        d="M7.98249 13.9676H9.14912M7.98249 9.00938V5.5095M5.06592 9.00938L2.14935 5.5095M10.8991 9.00938L13.8156 5.5095M10.6074 9.00005H5.35758C5.04817 9.00005 4.75143 9.12296 4.53265 9.34175C4.31386 9.56053 4.19095 9.85727 4.19095 10.1667V15.4165C4.19095 15.7259 4.31386 16.0227 4.53265 16.2414C4.75143 16.4602 5.04817 16.5831 5.35758 16.5831H10.6074C10.9168 16.5831 11.2136 16.4602 11.4323 16.2414C11.6511 16.0227 11.774 15.7259 11.774 15.4165V10.1667C11.774 9.85727 11.6511 9.56053 11.4323 9.34175C11.2136 9.12296 10.9168 9.00005 10.6074 9.00005ZM14.399 5.51766C14.5051 5.51682 14.609 5.48704 14.6994 5.43154C14.7899 5.37603 14.8635 5.2969 14.9123 5.20267C14.9695 5.11402 15 5.01072 15 4.90518C15 4.79964 14.9695 4.69635 14.9123 4.60769C14.1121 3.5443 13.0594 2.69724 11.8494 2.14317C10.6394 1.5891 9.31033 1.34551 7.98249 1.43446C6.6604 1.35145 5.33837 1.59791 4.13501 2.15174C2.93164 2.70558 1.88457 3.54946 1.08772 4.60769C1.03046 4.69635 1 4.79964 1 4.90518C1 5.01072 1.03046 5.11402 1.08772 5.20267C1.13363 5.29188 1.20177 5.36773 1.28556 5.42291C1.36935 5.47809 1.46595 5.51072 1.56604 5.51766H14.399Z"
        stroke="#4B3456" stroke-width="1.16663" stroke-linecap="round" stroke-linejoin="round" />
</svg>