<svg width="16" height="16" viewBox="0 0 16 16" fill="none" xmlns="http://www.w3.org/2000/svg">
    <path
        d="M12.08 7.1686C12.16 7.3286 12.24 7.5286 12.2 7.7286C12.16 7.9286 12.08 8.0886 11.96 8.2486C11.84 8.4086 11.68 8.4886 11.48 8.5286C11.28 8.5686 11.08 8.5286 10.92 8.4886C10.76 8.4086 10.6 8.2886 10.52 8.1286L10.36 7.8486L10.28 8.6486C10.2 9.2086 11.12 9.2886 11.12 9.2886C11.16 9.2886 11.2 9.3286 11.24 9.3686C11.28 9.4086 11.28 9.4486 11.28 9.4886C11.28 9.5286 11.24 9.5686 11.2 9.6086C11.16 9.6486 11.12 9.6486 11.08 9.6486L8.91999 9.4086C8.87999 9.4086 8.83999 9.3686 8.79999 9.3286C8.75999 9.2886 8.75999 9.2486 8.75999 9.2086C8.75999 9.1686 8.79999 9.1286 8.83999 9.0886C8.87999 9.0486 8.91999 9.0486 8.95999 9.0486C8.95999 9.0486 9.87999 9.1686 9.91999 8.6086L9.99999 7.8086L9.79999 8.0086C9.67999 8.1286 9.47999 8.2486 9.31999 8.2886C9.11999 8.3286 8.91999 8.2886 8.75999 8.2086C8.59999 8.1286 8.43999 8.0086 8.35999 7.8086C8.27999 7.6486 8.23999 7.4486 8.23999 7.2486C8.27999 7.0486 8.35999 6.8886 8.47999 6.7286L10.52 4.7686L12.08 7.1686ZM15.36 2.8086L14.2 12.7686C14.08 13.6886 13.32 14.3686 12.4 14.3686C12.32 14.3686 12.28 14.3686 12.2 14.3686L10.88 14.2086C10.64 14.4486 10.28 14.6486 9.91999 14.6886L4.39999 15.6486C4.27999 15.6486 4.19999 15.6886 4.07999 15.6886C3.71999 15.6886 3.35999 15.5686 3.03999 15.3686C2.63999 15.0886 2.39999 14.6886 2.31999 14.2086L0.639992 4.2886C0.559992 3.8086 0.679992 3.3286 0.959992 2.9286C1.23999 2.5286 1.63999 2.2886 2.11999 2.2086L6.31999 1.4886C6.55999 0.648601 7.35999 0.088601 8.23999 0.168601L13.8 0.808601C14.28 0.848601 14.72 1.0886 15 1.4886C15.28 1.8886 15.44 2.3686 15.36 2.8086ZM7.63999 13.8486L6.63999 13.7286C6.15999 13.6886 5.71999 13.4486 5.43999 13.0486C5.15999 12.6886 4.99999 12.2086 5.07999 11.7286L6.11999 2.7686L2.31999 3.4086C2.15999 3.4486 2.03999 3.5286 1.95999 3.6486C1.87999 3.7686 1.83999 3.9286 1.87999 4.0486L3.55999 13.9286C3.59999 14.0886 3.67999 14.2086 3.79999 14.2886C3.91999 14.3686 4.07999 14.4086 4.19999 14.3686L7.63999 13.8486ZM14.16 2.6886C14.16 2.5286 14.12 2.4086 14.04 2.2886C13.96 2.1686 13.8 2.0886 13.68 2.0886L8.07999 1.4086C7.75999 1.3686 7.47999 1.6086 7.47999 1.8886L6.31999 11.8486C6.31999 12.0086 6.35999 12.1286 6.43999 12.2486C6.51999 12.3686 6.67999 12.4486 6.79999 12.4486L12.36 13.1286C12.68 13.1686 12.96 12.9286 12.96 12.6486L14.16 2.6886Z"
        fill="#4B3456" />
</svg>