<svg width="16" height="17" viewBox="0 0 16 17" fill="none" xmlns="http://www.w3.org/2000/svg">
    <path
        d="M9.79999 8.22858C9.91999 8.38858 10 8.54858 10 8.78858C10 8.98858 9.95999 9.14858 9.83999 9.30858C9.71999 9.46858 9.55999 9.58858 9.39999 9.62858C9.2 9.70858 9.03999 9.70858 8.83999 9.62858C8.63999 9.58858 8.47999 9.46858 8.39999 9.30858L8.2 9.06858V9.86858C8.2 10.4286 9.11999 10.4286 9.11999 10.4286C9.15999 10.4286 9.19999 10.4286 9.23999 10.4686C9.27999 10.5086 9.27999 10.5486 9.27999 10.5886C9.27999 10.6286 9.27999 10.6686 9.23999 10.7086C9.19999 10.7486 9.15999 10.7486 9.11999 10.7486H6.95999C6.91999 10.7486 6.87999 10.7486 6.83999 10.7086C6.79999 10.6686 6.79999 10.6286 6.79999 10.5886C6.79999 10.5486 6.79999 10.5086 6.83999 10.4686C6.79999 10.4286 6.87999 10.4286 6.91999 10.4286C6.91999 10.4286 7.83999 10.4286 7.83999 9.86858V9.06858L7.63999 9.30858C7.51999 9.46858 7.35999 9.58858 7.2 9.62858C7 9.66858 6.83999 9.66858 6.63999 9.62858C6.43999 9.58858 6.31999 9.46858 6.19999 9.30858C6.07999 9.14858 6.03999 8.94858 6.03999 8.78858C6.03999 8.58858 6.12 8.38858 6.24 8.22858L8.03999 6.06858L9.79999 8.22858ZM15.88 8.42858C15.88 12.7886 12.36 16.3086 7.99999 16.3086C3.64 16.3086 0.119995 12.7886 0.119995 8.42858C0.119995 4.06858 3.64 0.548584 7.99999 0.548584C12.36 0.548584 15.88 4.06858 15.88 8.42858ZM13.16 12.6286L12.36 12.1886C12.24 12.1086 12.24 11.9886 12.28 11.9086L13.12 10.4286C13.16 10.3086 13.32 10.3086 13.4 10.3486L14.2 10.7886C14.48 10.0686 14.64 9.26858 14.64 8.42858C14.64 7.58858 14.48 6.82858 14.2 6.06858L13.4 6.50858C13.28 6.58858 13.16 6.54858 13.12 6.42858L12.28 4.94858C12.2 4.82858 12.24 4.70858 12.36 4.66858L13.16 4.22858C12.16 2.98858 10.72 2.14858 9.08 1.86858V2.78858C9.08 2.90858 9 2.98858 8.88 2.98858H7.2C7.08 2.98858 7 2.90858 7 2.78858V1.86858C5.36 2.14858 3.91999 2.98858 2.91999 4.22858L3.72 4.66858C3.83999 4.74858 3.83999 4.86858 3.79999 4.94858L2.95999 6.42858C2.87999 6.54858 2.75999 6.54858 2.67999 6.50858L1.87999 6.06858C1.51999 6.82858 1.35999 7.58858 1.35999 8.42858C1.35999 9.26858 1.51999 10.0286 1.79999 10.7886L2.59999 10.3486C2.71999 10.2686 2.83999 10.3086 2.87999 10.4286L3.72 11.9086C3.75999 12.0286 3.75999 12.1486 3.64 12.1886L2.84 12.6286C3.84 13.8686 5.27999 14.7086 6.91999 14.9886V14.0686C6.91999 13.9486 6.99999 13.8686 7.11999 13.8686H8.79999C8.91999 13.8686 9 13.9486 9 14.0686V14.9886C10.72 14.7086 12.12 13.8686 13.16 12.6286ZM12.52 8.42858C12.52 10.9486 10.48 12.9486 7.99999 12.9486C5.47999 12.9486 3.47999 10.9086 3.47999 8.42858C3.47999 5.94858 5.47999 3.90858 7.99999 3.90858C10.52 3.90858 12.52 5.90858 12.52 8.42858ZM11.72 8.42858C11.72 6.34858 10.04 4.70858 7.99999 4.70858C5.92 4.70858 4.27999 6.38858 4.27999 8.42858C4.27999 10.4686 5.96 12.1486 7.99999 12.1486C10.08 12.1486 11.72 10.5086 11.72 8.42858Z"
        fill="#4B3456" />
</svg>