<svg width="14" height="16" viewBox="0 0 14 16" fill="none" xmlns="http://www.w3.org/2000/svg">
    <path
        d="M13.24 4.18573H11.24C11.48 3.78573 11.64 3.30573 11.64 2.82573C11.6 1.34573 10.44 0.18573 8.99997 0.18573C8.19997 0.18573 7.47997 0.54573 6.99997 1.10573C6.51997 0.54573 5.79997 0.18573 4.99997 0.18573C3.55997 0.18573 2.39997 1.34573 2.39997 2.78573C2.39997 3.30573 2.55997 3.74573 2.79997 4.14573H0.799973C0.439973 4.14573 0.159973 4.42573 0.159973 4.74573V6.90573C0.159973 7.26573 0.439973 7.50573 0.799973 7.50573H1.39997V14.7057C1.39997 15.0657 1.67997 15.3057 1.99997 15.3057H12C12.36 15.3057 12.64 15.0257 12.64 14.7057V7.50573H13.24C13.6 7.50573 13.84 7.22573 13.84 6.90573V4.74573C13.84 4.46573 13.56 4.18573 13.24 4.18573ZM12.6 6.30573H8.67997V5.38573H12.6V6.30573ZM8.99997 1.42573C9.75997 1.42573 10.36 2.02573 10.36 2.78573C10.36 3.54573 9.75997 4.14573 8.99997 4.14573H7.63997V2.78573C7.63997 2.02573 8.23997 1.42573 8.99997 1.42573ZM3.63997 2.78573C3.63997 2.02573 4.23997 1.42573 4.99997 1.42573C5.75997 1.42573 6.35997 2.02573 6.35997 2.78573V4.18573H4.99997C4.23997 4.18573 3.63997 3.54573 3.63997 2.78573ZM1.39997 5.42573H5.27997V6.34573H1.39997V5.42573ZM2.63997 7.54573H5.31997V14.1457H2.63997V7.54573ZM6.55997 6.94573V5.42573H7.43997V14.1457H6.51997V6.94573H6.55997ZM11.4 14.1457H8.71997V7.54573H11.4V14.1457Z"
        fill="#4B3456" />
</svg>