<svg width="18" height="18" viewBox="0 0 18 18" fill="none" xmlns="http://www.w3.org/2000/svg">
    <path
        d="M17.8613 8.19H9.38367V10.647H15.4022C15.0971 14.076 12.1664 15.543 9.39291 15.543C5.85208 15.543 2.74576 12.825 2.74576 9C2.74576 5.31 5.70416 2.457 9.40216 2.457C12.2589 2.457 13.9322 4.23 13.9322 4.23L15.6888 2.448C15.6888 2.448 13.433 0 9.30971 0C4.05855 0 0 4.32 0 9C0 13.545 3.81818 18 9.44838 18C14.3945 18 18 14.697 18 9.819C18 8.784 17.8613 8.19 17.8613 8.19Z"
        fill="white" />
</svg>