<svg width="40" height="40" viewBox="0 0 40 40" fill="none" xmlns="http://www.w3.org/2000/svg">
<rect width="40" height="40" rx="20" fill="#E90083"/>
<g clip-path="url(#clip0_225_108)">
<path d="M21.7089 11.3203H14.8229L14.5844 12.7879C14.419 13.8061 15.2177 14.7288 16.264 14.7288H20.2986C21.839 14.7288 23.0131 16.0852 22.7689 17.5832C22.5271 19.07 21.2251 20.1624 19.6962 20.1624H19.096H18.2117H14.8343C13.9991 20.1624 13.2871 20.7602 13.1547 21.5727L12 28.6538H15.3808C16.2138 28.6538 16.9246 28.0582 17.0559 27.248L17.656 23.5596H20.9433C24.2158 23.5596 27.0033 21.2187 27.5213 18.0372C28.0952 14.5141 25.3317 11.3203 21.7089 11.3203Z" fill="white"/>
</g>
<defs>
<clipPath id="clip0_225_108">
<rect width="16" height="18" fill="white" transform="translate(12 11)"/>
</clipPath>
</defs>
</svg>
