<svg width="16" height="17" viewBox="0 0 16 17" fill="none" xmlns="http://www.w3.org/2000/svg">
    <path
        d="M7.99999 0.33429C3.64 0.33429 0.119995 3.85429 0.119995 8.21429C0.119995 12.5743 3.64 16.0943 7.99999 16.0943C12.36 16.0943 15.88 12.5743 15.88 8.21429C15.88 3.85429 12.36 0.33429 7.99999 0.33429ZM7.6 13.2943V14.8143C6.68 14.7743 5.79999 14.5343 5.03999 14.1343L5.79999 12.8143C6.35999 13.0943 6.96 13.2543 7.6 13.2943ZM8.39999 13.2943C9.04 13.2543 9.64 13.0943 10.2 12.8143L10.96 14.1343C10.16 14.5343 9.31999 14.7743 8.39999 14.8143V13.2943ZM7.99999 12.5343C5.59999 12.5343 3.67999 10.6143 3.67999 8.21429C3.67999 5.81429 5.59999 3.89429 7.99999 3.89429C10.4 3.89429 12.32 5.81429 12.32 8.21429C12.32 10.6143 10.4 12.5343 7.99999 12.5343ZM2.91999 7.81429H1.39999C1.43999 6.89429 1.67999 6.01429 2.07999 5.25429L3.39999 6.01429C3.11999 6.57429 2.95999 7.17429 2.91999 7.81429ZM2.91999 8.61429C2.95999 9.25429 3.11999 9.85429 3.39999 10.4143L2.07999 11.1743C1.67999 10.3743 1.43999 9.53429 1.39999 8.61429H2.91999ZM8.39999 3.13429V1.61429C9.31999 1.65429 10.2 1.89429 10.96 2.29429L10.2 3.61429C9.64 3.33429 9.04 3.17429 8.39999 3.13429ZM7.6 3.13429C6.96 3.17429 6.35999 3.33429 5.79999 3.61429L5.03999 2.29429C5.83999 1.89429 6.68 1.65429 7.6 1.61429V3.13429ZM13.08 8.61429H14.6C14.56 9.53429 14.32 10.4143 13.92 11.1743L12.6 10.4143C12.88 9.85429 13.04 9.25429 13.08 8.61429ZM13.08 7.81429C13.04 7.17429 12.88 6.57429 12.6 6.01429L13.92 5.25429C14.32 6.05429 14.56 6.89429 14.6 7.81429H13.08ZM13.52 4.57429L12.2 5.33429C11.84 4.81429 11.4 4.37429 10.88 4.01429L11.64 2.69429C12.4 3.17429 13.04 3.81429 13.52 4.57429ZM4.35999 2.69429L5.11999 4.01429C4.59999 4.37429 4.15999 4.81429 3.79999 5.33429L2.47999 4.57429C2.95999 3.81429 3.59999 3.17429 4.35999 2.69429ZM2.47999 11.8543L3.79999 11.0943C4.15999 11.6143 4.59999 12.0543 5.11999 12.4143L4.35999 13.7343C3.59999 13.2543 2.95999 12.6143 2.47999 11.8543ZM11.64 13.7343L10.88 12.4143C11.4 12.0543 11.84 11.6143 12.2 11.0943L13.52 11.8543C13.04 12.6143 12.4 13.2543 11.64 13.7343ZM9.39999 8.77429L11.4 8.45429C11.68 8.41429 11.68 8.01429 11.4 7.97429L9.39999 7.65429C9.24 7.29429 8.95999 6.97429 8.55999 6.81429L8.23999 4.81429C8.19999 4.53429 7.79999 4.53429 7.75999 4.81429L7.43999 6.81429C7.07999 6.97429 6.75999 7.25429 6.6 7.65429L4.59999 7.97429C4.31999 8.01429 4.31999 8.41429 4.59999 8.45429L6.6 8.77429C6.75999 9.13429 7.03999 9.45429 7.43999 9.61429L7.75999 11.6143C7.79999 11.8943 8.19999 11.8943 8.23999 11.6143L8.55999 9.61429C8.91999 9.45429 9.24 9.13429 9.39999 8.77429ZM7.99999 8.89429C7.59999 8.89429 7.28 8.57429 7.28 8.17429C7.28 7.77429 7.59999 7.45429 7.99999 7.45429C8.39999 7.45429 8.71999 7.77429 8.71999 8.17429C8.71999 8.57429 8.39999 8.89429 7.99999 8.89429Z"
        fill="#4B3456" />
</svg>