<svg width="14" height="14" viewBox="0 0 14 14" fill="none" xmlns="http://www.w3.org/2000/svg">
    <path
        d="M6.40009 1.30856C7.76009 1.30856 8.76009 1.98856 9.72009 1.98856C10.1601 1.98856 10.5201 1.78856 10.5201 1.30856H11.9201V1.62856C11.9201 4.70856 8.08009 6.50856 8.08009 11.5886V12.3886H4.72009V11.9486C4.72009 6.98856 7.24009 6.78856 9.56009 3.70856L9.52009 3.66856C8.88009 4.02856 8.20009 4.10856 7.56009 4.10856C7.16009 4.10856 6.72009 4.02856 6.28009 3.94856C5.84009 3.86856 5.40009 3.78856 5.08009 3.78856C4.28009 3.78856 3.64009 4.50856 3.64009 5.86856V6.42856H2.08009V1.30856H3.64009V2.54856H3.76009C4.44009 1.62856 5.16009 1.30856 6.40009 1.30856ZM6.40009 0.0685646C5.68009 0.0685646 5.04009 0.188564 4.48009 0.428564C4.24009 0.228564 3.96009 0.108564 3.64009 0.108564H2.08009C1.40009 0.108564 0.840088 0.668564 0.840088 1.34856V6.42856C0.840088 7.10856 1.40009 7.66856 2.08009 7.66856H3.64009C4.32009 7.66856 4.88009 7.10856 4.88009 6.42856V5.90857C4.88009 5.34857 5.04009 5.14856 5.08009 5.06856C5.28009 5.06856 5.64009 5.14856 6.00009 5.18856H6.08009C6.20009 5.18856 6.28009 5.22856 6.40009 5.22856C4.88009 6.66856 3.48009 8.14856 3.48009 11.9086V12.3486C3.48009 13.0286 4.04009 13.5886 4.72009 13.5886H8.08009C8.76009 13.5886 9.32009 13.0286 9.32009 12.3486V11.5486C9.32009 9.06856 10.3601 7.50856 11.4001 5.94856C12.2801 4.62856 13.1601 3.30856 13.1601 1.58856V1.26856C13.1601 0.588565 12.6001 0.0285645 11.9201 0.0285645H10.5201C10.0401 0.0285645 9.64009 0.268565 9.44009 0.668565C9.24009 0.628565 9.00009 0.548565 8.72009 0.468565C8.08009 0.308565 7.32009 0.0685646 6.40009 0.0685646Z"
        fill="#4B3456" />
</svg>