<svg width="16" height="16" viewBox="0 0 16 16" fill="none" xmlns="http://www.w3.org/2000/svg">
    <path
        d="M3.38 15.0306C3.02 15.0306 2.74 14.7506 2.74 14.3906C2.74 14.3506 2.74 14.3106 2.74 14.2706L3.54 9.63056L0.18 6.35056C-0.06 6.11056 -0.06 5.71056 0.18 5.47056C0.26 5.39056 0.42 5.31056 0.54 5.27056L5.22 4.59056L7.3 0.350562C7.46 0.0305618 7.82 -0.0894381 8.14 0.0705619C8.26 0.150562 8.38 0.230562 8.42 0.350562L10.5 4.59056L15.18 5.27056C15.54 5.31056 15.74 5.63056 15.7 5.99056C15.7 6.11056 15.62 6.27056 15.5 6.35056L12.14 9.63056L12.94 14.2706C12.98 14.6306 12.78 14.9506 12.42 14.9906C12.3 15.0306 12.14 14.9906 12.02 14.9106L7.86 12.7506L3.7 14.9506C3.58 14.9906 3.5 15.0306 3.38 15.0306ZM7.86 11.4306C7.98 11.4306 8.06 11.4706 8.14 11.5106L11.5 13.2706L10.86 9.51056C10.82 9.31056 10.9 9.11056 11.06 8.95056L13.78 6.31056L10.06 5.75056C9.86 5.71056 9.66 5.59056 9.58 5.39056L7.86 2.03056L6.18 5.43056C6.1 5.63056 5.9 5.75056 5.7 5.79056L1.98 6.31056L4.7 8.95056C4.86 9.11056 4.9 9.31056 4.9 9.51056L4.26 13.2306L7.62 11.4706C7.66 11.4306 7.74 11.4306 7.86 11.4306Z"
        fill="#4B3456" />
</svg>