<svg width="18" height="17" viewBox="0 0 18 17" fill="none" xmlns="http://www.w3.org/2000/svg">
    <path
        d="M15.64 6.14H12L10.2 1.74C9.83998 0.860001 8.79998 0.420001 7.91998 0.780001L1.71999 3.3C1.27999 3.46 0.959985 3.82 0.759985 4.26C0.559985 4.7 0.559985 5.18 0.759985 5.62L3.27999 11.82C3.43999 12.26 3.79999 12.58 4.23999 12.78C4.47999 12.86 4.67999 12.9 4.91998 12.9C5.15998 12.9 5.35999 12.86 5.59999 12.78L7.23999 12.1V14.58C7.23999 15.54 8.03998 16.34 8.99998 16.34H15.68C16.64 16.34 17.44 15.54 17.44 14.58V7.9C17.4 6.94 16.6 6.14 15.64 6.14ZM5.07998 11.58C4.95998 11.62 4.79998 11.62 4.67998 11.58C4.55998 11.54 4.43999 11.42 4.39999 11.3L1.87999 5.14C1.83999 5.02 1.83999 4.86 1.87999 4.74C1.95999 4.58 2.03999 4.5 2.19999 4.46L8.39998 1.94C8.67999 1.82 8.95999 1.98 9.07999 2.22L10.68 6.14H8.95998C7.99998 6.14 7.19999 6.94 7.19999 7.9V10.74L5.07998 11.58ZM16.16 14.58C16.16 14.86 15.92 15.1 15.64 15.1H8.95998C8.67999 15.1 8.43999 14.86 8.43999 14.58V7.9C8.43999 7.62 8.67999 7.38 8.95998 7.38H15.64C15.92 7.38 16.16 7.62 16.16 7.9V14.58ZM13 11.26C13 11.66 12.68 11.98 12.28 11.98C11.88 11.98 11.56 11.66 11.56 11.26C11.56 10.86 11.88 10.54 12.28 10.54C12.68 10.5 13 10.82 13 11.26ZM4.55999 5.74C4.55999 6.14 4.23999 6.46 3.83999 6.46C3.43999 6.46 3.11999 6.14 3.11999 5.74C3.11999 5.34 3.43999 5.02 3.83999 5.02C4.23999 5.02 4.55999 5.3 4.55999 5.74ZM6.27999 9.78C6.27999 10.18 5.95999 10.5 5.55999 10.5C5.15999 10.5 4.83999 10.18 4.83999 9.78C4.83999 9.38 5.15999 9.06 5.55999 9.06C5.95999 9.06 6.27999 9.38 6.27999 9.78ZM7.23999 4.02C7.23999 3.62 7.55998 3.3 7.95998 3.3C8.35998 3.3 8.67999 3.62 8.67999 4.02C8.67999 4.42 8.35998 4.74 7.95998 4.74C7.59998 4.74 7.23999 4.42 7.23999 4.02ZM10.68 13.58C10.68 13.98 10.36 14.3 9.95998 14.3C9.55999 14.3 9.23999 13.98 9.23999 13.58C9.23999 13.18 9.55999 12.86 9.95998 12.86C10.36 12.86 10.68 13.18 10.68 13.58ZM15.48 8.86C15.48 9.26 15.16 9.58 14.76 9.58C14.36 9.58 14.04 9.26 14.04 8.86C14.04 8.46 14.36 8.14 14.76 8.14C15.16 8.14 15.48 8.42 15.48 8.86Z"
        fill="#4B3456" />
</svg>