<?xml version="1.0" encoding="utf-8"?>
<!-- Generator: Adobe Illustrator 26.0.2, SVG Export Plug-In . SVG Version: 6.00 Build 0)  -->
<svg version="1.1" id="Layer_1" xmlns="http://www.w3.org/2000/svg" xmlns:xlink="http://www.w3.org/1999/xlink" x="0px" y="0px"
	 viewBox="0 0 30 30" style="enable-background:new 0 0 30 30;" xml:space="preserve">
<style type="text/css">
	.st0{fill:#FF8500;}
	.st1{fill-rule:evenodd;clip-rule:evenodd;fill:#FFFFFF;}
</style>
<g>
	<path class="st0" d="M6,0h18c3.3,0,6,2.7,6,6v18c0,3.3-2.7,6-6,6H6c-3.3,0-6-2.7-6-6V6.1C-0.1,2.7,2.6,0,6,0z"/>
	<g>
		<path class="st1" d="M12.9,11v2.8H17c0.7,0,1.3-0.6,1.3-1.3v-0.2c0-0.7-0.6-1.3-1.3-1.3h-3.5C13.5,11,12.9,11,12.9,11z M18.9,18
			v-0.2c0-0.8-0.7-1.4-1.5-1.4H17h-4.1v3h4.5C18.2,19.5,18.9,18.7,18.9,18z M20.2,14.9c0.8,0.7,1.3,1.8,1.3,2.9V18
			c0,2.2-1.9,4-4.1,4l0,0v1.2h-2.6V22h-1.1v1.2h-2.6V22h-0.8H9v-2.6h1.3v-3v-2.6V11H9V8.4h1.9V7h2.6v1.4h1.1V7h2.6v1.4
			c2.1,0.1,3.7,1.8,3.7,3.9v0.2C21,13.5,20.6,14.2,20.2,14.9z"/>
	</g>
</g>
</svg>
