<svg width="20" height="20" viewBox="0 0 20 20" fill="none" xmlns="http://www.w3.org/2000/svg">
    <path
        d="M7.2958 15.2042C7.38876 15.2979 7.49936 15.3723 7.62122 15.4231C7.74308 15.4739 7.87379 15.5 8.0058 15.5C8.13781 15.5 8.26852 15.4739 8.39038 15.4231C8.51224 15.3723 8.62284 15.2979 8.7158 15.2042L13.7158 10.2042C13.8095 10.1112 13.8839 10.0006 13.9347 9.87878C13.9855 9.75692 14.0116 9.62621 14.0116 9.4942C14.0116 9.36219 13.9855 9.23148 13.9347 9.10962C13.8839 8.98777 13.8095 8.87716 13.7158 8.7842L8.7158 3.7842C8.62284 3.69047 8.51223 3.61608 8.39038 3.56531C8.26852 3.51454 8.13781 3.4884 8.0058 3.4884C7.87379 3.4884 7.74308 3.51454 7.62122 3.56531C7.49936 3.61608 7.38876 3.69047 7.2958 3.7842C7.20207 3.87717 7.12768 3.98777 7.07691 4.10962C7.02614 4.23148 7 4.36219 7 4.4942C7 4.62621 7.02614 4.75692 7.07691 4.87878C7.12768 5.00064 7.20207 5.11124 7.2958 5.2042L11.5958 9.4942L7.2958 13.7842C7.20207 13.8772 7.12768 13.9878 7.07691 14.1096C7.02614 14.2315 7 14.3622 7 14.4942C7 14.6262 7.02614 14.7569 7.07691 14.8788C7.12768 15.0006 7.20207 15.1112 7.2958 15.2042Z"
        fill="#E6E3E8" />
</svg>