<svg width="20" height="20" viewBox="0 0 20 20" fill="none" xmlns="http://www.w3.org/2000/svg">
    <path
        d="M12.7158 3.7842C12.6228 3.69047 12.5122 3.61608 12.3904 3.56531C12.2685 3.51454 12.1378 3.4884 12.0058 3.4884C11.8738 3.4884 11.7431 3.51454 11.6212 3.56531C11.4994 3.61608 11.3888 3.69047 11.2958 3.7842L6.2958 8.7842C6.20207 8.87716 6.12768 8.98777 6.07691 9.10962C6.02614 9.23148 6 9.36219 6 9.4942C6 9.62621 6.02614 9.75692 6.07691 9.87878C6.12768 10.0006 6.20207 10.1112 6.2958 10.2042L11.2958 15.2042C11.3888 15.2979 11.4994 15.3723 11.6212 15.4231C11.7431 15.4739 11.8738 15.5 12.0058 15.5C12.1378 15.5 12.2685 15.4739 12.3904 15.4231C12.5122 15.3723 12.6228 15.2979 12.7158 15.2042C12.8095 15.1112 12.8839 15.0006 12.9347 14.8788C12.9855 14.7569 13.0116 14.6262 13.0116 14.4942C13.0116 14.3622 12.9855 14.2315 12.9347 14.1096C12.8839 13.9878 12.8095 13.8772 12.7158 13.7842L8.4158 9.4942L12.7158 5.2042C12.8095 5.11124 12.8839 5.00064 12.9347 4.87878C12.9855 4.75692 13.0116 4.62621 13.0116 4.4942C13.0116 4.36219 12.9855 4.23148 12.9347 4.10962C12.8839 3.98777 12.8095 3.87716 12.7158 3.7842Z"
        fill="#E6E3E8" />
</svg>