<svg width="13" height="8" viewBox="0 0 13 8" xmlns="http://www.w3.org/2000/svg">
    <path
        d="M0.295798 0.295799C0.20207 0.388762 0.127676 0.499363 0.0769071 0.621222C0.0261385 0.743081 -5.77042e-09 0.873787 0 1.0058C5.77042e-09 1.13781 0.0261385 1.26852 0.0769072 1.39038C0.127676 1.51223 0.20207 1.62284 0.295798 1.7158L5.2958 6.7158C5.38876 6.80953 5.49936 6.88392 5.62122 6.93469C5.74308 6.98546 5.87379 7.0116 6.0058 7.0116C6.13781 7.0116 6.26852 6.98546 6.39038 6.93469C6.51223 6.88392 6.62284 6.80953 6.7158 6.7158L11.7158 1.7158C11.8095 1.62284 11.8839 1.51223 11.9347 1.39038C11.9855 1.26852 12.0116 1.13781 12.0116 1.0058C12.0116 0.873786 11.9855 0.743081 11.9347 0.621221C11.8839 0.499362 11.8095 0.388761 11.7158 0.295798C11.6228 0.20207 11.5122 0.127676 11.3904 0.0769071C11.2685 0.0261385 11.1378 -5.77042e-09 11.0058 0C10.8738 5.77042e-09 10.7431 0.0261385 10.6212 0.0769072C10.4994 0.127676 10.3888 0.20207 10.2958 0.295798L6.0058 4.5958L1.7158 0.295799C1.62284 0.20207 1.51223 0.127676 1.39038 0.0769076C1.26852 0.0261389 1.13781 4.31343e-07 1.0058 4.37114e-07C0.873786 4.42884e-07 0.743081 0.0261389 0.621221 0.0769076C0.499362 0.127676 0.388761 0.20207 0.295798 0.295799Z"
        fill="#644B72" 
    />
</svg>