<svg width="20" height="20" viewBox="0 0 20 20" fill="none" xmlns="http://www.w3.org/2000/svg">
    <path
        d="M9.40009 4.87998C10.7601 4.87998 11.7601 5.55998 12.7201 5.55998C13.1601 5.55998 13.5201 5.35998 13.5201 4.87998H14.9201V5.19998C14.9201 8.27998 11.0801 10.08 11.0801 15.16V15.96H7.72009V15.52C7.72009 10.56 10.2401 10.36 12.5601 7.27998L12.5201 7.23998C11.8801 7.59998 11.2001 7.67998 10.5601 7.67998C10.1601 7.67998 9.72009 7.59998 9.28009 7.51998C8.84009 7.43998 8.40009 7.35998 8.08009 7.35998C7.28009 7.35998 6.64009 8.07998 6.64009 9.43998V9.99998H5.08009V4.87998H6.64009V6.11998H6.76009C7.44009 5.19998 8.16009 4.87998 9.40009 4.87998ZM9.40009 3.63998C8.68009 3.63998 8.04009 3.75998 7.48009 3.99998C7.24009 3.79998 6.96009 3.67998 6.64009 3.67998H5.08009C4.40009 3.67998 3.84009 4.23998 3.84009 4.91998V9.99998C3.84009 10.68 4.40009 11.24 5.08009 11.24H6.64009C7.32009 11.24 7.88009 10.68 7.88009 9.99998V9.47998C7.88009 8.91998 8.04009 8.71998 8.08009 8.63998C8.28009 8.63998 8.64009 8.71998 9.00009 8.75998H9.08009C9.20009 8.75998 9.28009 8.79998 9.40009 8.79998C7.88009 10.24 6.48009 11.72 6.48009 15.48V15.92C6.48009 16.6 7.04009 17.16 7.72009 17.16H11.0801C11.7601 17.16 12.3201 16.6 12.3201 15.92V15.12C12.3201 12.64 13.3601 11.08 14.4001 9.51998C15.2801 8.19998 16.1601 6.87998 16.1601 5.15998V4.83998C16.1601 4.15998 15.6001 3.59998 14.9201 3.59998H13.5201C13.0401 3.59998 12.6401 3.83998 12.4401 4.23998C12.2401 4.19998 12.0001 4.11998 11.7201 4.03998C11.0801 3.87998 10.3201 3.63998 9.40009 3.63998Z"
        fill="#E90083" />
</svg>