<svg width="39" height="31" xmlns="http://www.w3.org/2000/svg">
    <defs>
        <linearGradient id="paint0_linear_225_572" x1="0.5" x2="0.5" y1="0" y2="1">
            <stop stop-color="rgba(225, 255, 255, .6)" />
            <stop offset="1" stop-color="white" />
        </linearGradient>
    </defs>
    <g class="layer">
        <title>Layer 1</title>
        <g filter="url(#filter0_d_225_572)" id="svg_1">
            <path
                d="m32.6,2.99c-2.4,-1.16 -5.01,-2 -7.72,-2.49c-0.03,0 -0.05,0 -0.07,0.01c-0.03,0.01 -0.04,0.03 -0.06,0.05c-0.33,0.61 -0.71,1.42 -0.96,2.04c-2.88,-0.45 -5.81,-0.45 -8.69,0c-0.25,-0.64 -0.63,-1.43 -0.97,-2.04c-0.02,-0.04 -0.08,-0.06 -0.13,-0.06c-2.71,0.49 -5.3,1.33 -7.73,2.49c-0.01,0 -0.03,0.02 -0.05,0.04c-4.92,7.63 -6.28,15.05 -5.61,22.4c0,0.04 0.02,0.08 0.05,0.09c3.26,2.48 6.39,3.98 9.49,4.97c0.05,0.02 0.1,0 0.12,-0.04c0.73,-1.03 1.38,-2.11 1.94,-3.26c0.04,-0.07 0,-0.15 -0.07,-0.17c-1.03,-0.41 -2.01,-0.9 -2.97,-1.46c-0.07,-0.04 -0.07,-0.15 -0.02,-0.2c0.2,-0.15 0.4,-0.32 0.6,-0.47c0.03,-0.04 0.09,-0.04 0.12,-0.02c6.23,2.94 12.94,2.94 19.1,0c0.03,-0.02 0.09,-0.02 0.12,0.02c0.2,0.17 0.4,0.32 0.6,0.48c0.07,0.06 0.07,0.17 -0.02,0.21c-0.94,0.58 -1.94,1.05 -2.97,1.46c-0.07,0.02 -0.09,0.12 -0.07,0.17c0.58,1.15 1.23,2.23 1.94,3.26c0.05,0.02 0.11,0.04 0.16,0.02c3.11,-0.99 6.24,-2.49 9.5,-4.97c0.04,-0.01 0.05,-0.05 0.05,-0.09c0.8,-8.49 -1.32,-15.86 -5.6,-22.4c-0.02,-0.02 -0.04,-0.04 -0.08,-0.04zm-19.45,17.96c-1.86,0 -3.42,-1.78 -3.42,-3.97c0,-2.2 1.52,-3.98 3.42,-3.98c1.92,0 3.44,1.8 3.42,3.98c0,2.19 -1.52,3.97 -3.42,3.97zm12.61,0c-1.86,0 -3.42,-1.78 -3.42,-3.97c0,-2.2 1.52,-3.98 3.42,-3.98c1.92,0 3.44,1.8 3.42,3.98c0,2.19 -1.5,3.97 -3.42,3.97z"
                fill="url(#paint0_linear_225_572)" id="svg_2" />
        </g>
    </g>
</svg>