<svg width="20" height="20" viewBox="0 0 20 20" fill="none" xmlns="http://www.w3.org/2000/svg">
    <path
        d="M17.733 3.17468C17.6889 2.56128 17.1998 2.07216 16.5824 2.02405C16.5503 2.02405 16.2617 2 15.7806 2C13.784 2 8.79662 2.3488 5.57325 5.57216C1.5641 9.58533 2.00109 16.3007 2.02515 16.5853C2.06925 17.1987 2.55837 17.6878 3.17578 17.7359C3.20785 17.7359 3.49651 17.76 3.98162 17.76C5.97818 17.76 10.9656 17.4112 14.1889 14.1878C18.1981 10.1787 17.7571 3.45933 17.737 3.17869L17.733 3.17468ZM16.4942 3.26689C16.4942 3.26689 16.6706 5.69644 15.949 8.41866L11.3464 3.81615C13.1706 3.33104 14.8625 3.25086 15.7806 3.25086C16.2296 3.25086 16.4942 3.2709 16.4942 3.2709V3.26689ZM3.26398 16.4971C3.26398 16.4971 3.08758 14.0676 3.80922 11.3453L8.41174 15.9479C6.58757 16.433 4.89571 16.5132 3.97761 16.5132C3.52858 16.5132 3.26398 16.4931 3.26398 16.4931V16.4971ZM13.3069 13.3098C12.2726 14.3442 11.0137 15.0458 9.74679 15.5229L4.2382 10.0143C4.71529 8.74741 5.42091 7.49255 6.45527 6.45417C7.48963 5.41981 8.74851 4.71821 10.0154 4.24112L15.524 9.7497C15.0469 11.0166 14.3413 12.2715 13.3069 13.3098Z"
        fill="#E90083" />
    <path
        d="M11.7033 7.48854L10.6328 8.56299L9.82697 7.76116L9.26168 8.32645L10.0635 9.12828L8.86878 10.327L8.06695 9.52118L7.49765 10.0905L8.29948 10.8923L7.48963 11.7062L8.05492 12.2715L8.86878 11.4576L9.67061 12.2594L10.2359 11.6941L9.43407 10.8923L10.6328 9.69758L11.4346 10.4994L11.9999 9.93012L11.1981 9.12828L12.2685 8.05784L11.7033 7.48854Z"
        fill="#E90083" />
</svg>