<svg width="35" height="30" viewBox="0 0 35 30" fill="none" xmlns="http://www.w3.org/2000/svg">
    <path fill-rule="evenodd" clip-rule="evenodd"
        d="M31.3746 0.205239C31.8049 0.0235109 32.2759 -0.039166 32.7386 0.0237315C33.2013 0.086629 33.6387 0.272802 34.0053 0.562873C34.3719 0.852943 34.6544 1.23631 34.8232 1.67306C34.9921 2.10982 35.0411 2.584 34.9654 3.04625L31.0159 27.083C30.6328 29.4016 28.0973 30.7312 25.978 29.5763C24.2053 28.6101 21.5723 27.1214 19.204 25.5681C18.0198 24.7906 14.3925 22.3008 14.8383 20.5291C15.2214 19.0142 21.3163 13.3217 24.7991 9.93735C26.1661 8.6077 25.5427 7.84066 23.9284 9.06373C19.9197 12.1004 13.4835 16.7184 11.3555 18.0183C9.47824 19.1645 8.49957 19.3602 7.32935 19.1645C5.1944 18.8081 3.21443 18.2559 1.59841 17.5833C-0.585305 16.6747 -0.47908 13.6625 1.59667 12.7853L31.3746 0.205239Z"
        fill="url(#paint0_linear_225_582)" />
    <defs>
        <linearGradient id="paint0_linear_225_582" x1="17.5" y1="0" x2="17.5" y2="30"
            gradientUnits="userSpaceOnUse">
            <stop stop-color="rgba(225, 255, 255, .6)" />
            <stop offset="1" stop-color="white" />
        </linearGradient>
    </defs>
</svg>