<?xml version="1.0" encoding="utf-8"?>
<!-- Generator: Adobe Illustrator 26.0.2, SVG Export Plug-In . SVG Version: 6.00 Build 0)  -->
<svg version="1.1" id="Layer_1" xmlns:svg="http://www.w3.org/2000/svg"
	 xmlns="http://www.w3.org/2000/svg" xmlns:xlink="http://www.w3.org/1999/xlink" x="0px" y="0px" viewBox="0 0 673 58"
	 style="enable-background:new 0 0 673 58;" xml:space="preserve">
<style type="text/css">
	.st0{filter:url(#filter0_d_225_589);}
	.st1{fill:url(#svg_2_00000062187306963262552980000015211306258372945291_);}
	.st2{fill:#826B8E;}
	.st3{fill:#FFFFFF;}
	.st4{filter:url(#filter1_d_225_589);}
	.st5{fill:#E90083;}
	.st6{filter:url(#filter2_d_225_589);}
</style>
<filter  color-interpolation-filters="sRGB" filterUnits="userSpaceOnUse" height="32.67" id="filter2_d_225_589" width="37.8" x="635.1" y="15.1">
	<feFlood  flood-opacity="0" result="BackgroundImageFix"></feFlood>
	<feColorMatrix  in="SourceAlpha" result="hardAlpha" type="matrix" values="0 0 0 0 0 0 0 0 0 0 0 0 0 0 0 0 0 0 127 0">
		</feColorMatrix>
	<feOffset  dy="4"></feOffset>
	<feGaussianBlur  stdDeviation="3.95"></feGaussianBlur>
	<feComposite  in2="hardAlpha" operator="out"></feComposite>
	<feColorMatrix  type="matrix" values="0 0 0 0 0.913725 0 0 0 0 0 0 0 0 0 0.513726 0 0 0 0.75 0"></feColorMatrix>
	<feBlend  in2="BackgroundImageFix" mode="normal"></feBlend>
	<feBlend  in="SourceGraphic" in2="effect1_dropShadow_225_589" mode="normal"></feBlend>
</filter>
<filter  color-interpolation-filters="sRGB" filterUnits="userSpaceOnUse" height="32.67" id="filter1_d_225_589" width="37.8" x="207.1" y="15.1">
	<feFlood  flood-opacity="0" result="BackgroundImageFix"></feFlood>
	<feColorMatrix  in="SourceAlpha" result="hardAlpha" type="matrix" values="0 0 0 0 0 0 0 0 0 0 0 0 0 0 0 0 0 0 127 0">
		</feColorMatrix>
	<feOffset  dy="4"></feOffset>
	<feGaussianBlur  stdDeviation="3.95"></feGaussianBlur>
	<feComposite  in2="hardAlpha" operator="out"></feComposite>
	<feColorMatrix  type="matrix" values="0 0 0 0 0.913725 0 0 0 0 0 0 0 0 0 0.513726 0 0 0 0.75 0"></feColorMatrix>
	<feBlend  in2="BackgroundImageFix" mode="normal"></feBlend>
	<feBlend  in="SourceGraphic" in2="effect1_dropShadow_225_589" mode="normal"></feBlend>
</filter>
<filter  color-interpolation-filters="sRGB" filterUnits="userSpaceOnUse" height="87.4" id="filter0_d_225_589" width="199.4" x="0.3" y="0.3">
	<feFlood  flood-opacity="0" result="BackgroundImageFix"></feFlood>
	<feColorMatrix  in="SourceAlpha" result="hardAlpha" type="matrix" values="0 0 0 0 0 0 0 0 0 0 0 0 0 0 0 0 0 0 127 0">
		</feColorMatrix>
	<feOffset  dy="15"></feOffset>
	<feGaussianBlur  stdDeviation="13.35"></feGaussianBlur>
	<feComposite  in2="hardAlpha" operator="out"></feComposite>
	<feColorMatrix  type="matrix" values="0 0 0 0 0.121569 0 0 0 0 0.0627451 0 0 0 0 0.117647 0 0 0 0.21 0"></feColorMatrix>
	<feBlend  in2="BackgroundImageFix" mode="normal"></feBlend>
	<feBlend  in="SourceGraphic" in2="effect1_dropShadow_225_589" mode="normal"></feBlend>
</filter>
<g>
	<g id="svg_1" class="st0">
		
			<linearGradient id="svg_2_00000018939935387501375750000009179131403507688837_" gradientUnits="userSpaceOnUse" x1="-459.3287" y1="613.4559" x2="-459.3287" y2="612.0659" gradientTransform="matrix(145.9974 0 0 -34 67160.8125 20862)">
			<stop  offset="0" style="stop-color:#FFFFFF"/>
			<stop  offset="1" style="stop-color:#FFD6EA"/>
		</linearGradient>
		
			<path id="svg_2_00000127024095432695546880000008945886547567721095_" style="fill:url(#svg_2_00000018939935387501375750000009179131403507688837_);" d="
			M73.4,13.6l-0.6,3.7c-0.2,1.5-1.6,2.7-3.2,2.7h-6.5l0.6-3.7c0.2-1.6,1.6-2.7,3.2-2.7C66.9,13.6,73.4,13.6,73.4,13.6z M68,23.2
			h-5.4l-3.2,19.5c-0.3,1.9,1.2,3.7,3.2,3.7H68l3.2-19.5C71.5,25,70,23.3,68,23.2z M45.6,13.6H32.4L32,16.4
			c-0.3,1.9,1.2,3.7,3.2,3.7h7.7c3,0,5.2,2.6,4.7,5.4c-0.5,2.8-3,4.9-5.9,4.9h-1.2h-1.7h-6.5c-1.6,0-3,1.1-3.2,2.7L27,46.3h6.5
			c1.6,0,3-1.1,3.2-2.7l1.2-7h6.3c6.3,0,11.6-4.4,12.6-10.4C57.8,19.6,52.6,13.6,45.6,13.6z M142.8,13.6h-8.9
			c-1.1,0-2.1,0.5-2.7,1.4l-6.4,9.2l-3.1-8.5c-0.5-1.3-1.7-2.1-3.1-2.1h-8.3l-4.8,29c-0.3,1.9,1.2,3.7,3.2,3.7h5.4l2.9-17.7l1.6,4.4
			l0.7,1.8c0.4,1.2,1.5,2.2,2.8,2.5c1.5,0.3,3-0.3,3.9-1.5L128,33l3-4.4l-2.9,17.7h6.5c1.6,0,2.9-1.1,3.2-2.6L142.8,13.6
			C142.8,13.6,142.8,13.6,142.8,13.6z M103.9,20.6l1.1-7H89c-5.9,0-11,4.2-11.9,9.9l-1.5,9.3c-1.2,7.1,4.5,13.6,11.9,13.6
			c7.1,0,13.1-5,14.2-11.7l0.3-2c0.3-1.9-1.2-3.6-3.2-3.6h-9.4l-0.8,5c-0.1,0.7,0.5,1.4,1.2,1.4h1.1c0.8,0,1.3,0.7,1.2,1.4
			c-0.4,2.2-2.3,3.8-4.5,3.8c-2.1,0-3.7-1.9-3.4-3.9l2.2-13.5c0.4-2.2,2.4-3.9,4.8-3.8c1.8,0.1,3.2,1.6,3.2,3.4
			c0,0.3,0.2,0.5,0.5,0.5h6C102.3,23.2,103.7,22.1,103.9,20.6C103.9,20.6,103.9,20.6,103.9,20.6z M163.9,13h-6.7
			c-5.2,0-9.6,3.7-10.5,8.7l-2.5,15.1c-0.9,5.4,3.4,10.3,9,10.3h6.7c5.2,0,9.6-3.7,10.5-8.7l2.5-15.1C173.8,17.9,169.5,13,163.9,13
			L163.9,13z M163.6,23.3l-2.2,13.6c-0.4,2.2-2.3,3.8-4.5,3.8c-2.1,0-3.7-1.8-3.4-3.8l2.2-13.6c0.4-2.2,2.3-3.8,4.5-3.8
			C162.4,19.4,164,21.2,163.6,23.3z"/>
	</g>
	<path id="svg_3" class="st2" d="M265.2,33h-2.6c-0.3,0-0.5-0.2-0.5-0.5v-7.4c0-0.3,0.2-0.5,0.5-0.5h2.5c1.7,0,2.6,0.7,2.6,2.1V27
		c0,0.8-0.4,1.4-1.2,1.7c0.9,0.3,1.3,0.9,1.3,1.8v0.3C267.9,32.2,267,33,265.2,33L265.2,33z M265.1,25.4h-2v2.9h2
		c1,0,1.6-0.4,1.6-1.3v-0.3C266.7,25.9,266.2,25.4,265.1,25.4z M265.2,29.1h-2.1v3h2.1c1.1,0,1.6-0.4,1.6-1.3v-0.3
		C266.9,29.6,266.3,29.1,265.2,29.1z M302.6,33h-4.4c-0.3,0-0.5-0.2-0.5-0.5v-7.4c0-0.3,0.2-0.5,0.5-0.5h4.4c0.2,0,0.3,0.1,0.3,0.3
		v0.3c0,0.2-0.1,0.3-0.3,0.3h-3.8v2.9h3.2c0.2,0,0.4,0.1,0.4,0.4v0c0,0.2-0.2,0.4-0.4,0.4h-3.2v3h3.8c0.2,0,0.3,0.1,0.3,0.3v0.3
		C302.9,32.9,302.8,33,302.6,33z M334.9,33h-0.4c-0.2,0-0.3-0.1-0.3-0.3v-3.1l-2.6-4.4c-0.1-0.2-0.1-0.2-0.1-0.4
		c0-0.1,0.1-0.2,0.3-0.2h0.4c0.2,0,0.3,0,0.4,0.3l2.2,3.7l2.1-3.7c0.1-0.2,0.2-0.3,0.4-0.3h0.3c0.2,0,0.3,0.1,0.3,0.2
		c0,0.1,0,0.2-0.1,0.4l-2.6,4.4v3.1C335.2,32.9,335.1,33,334.9,33L334.9,33z M369.9,24.5c2,0,3.1,1,3.1,2.9v2.9
		c0,1.8-1.1,2.9-3.1,2.9c-2,0-3.1-1-3.1-2.9v-2.9C366.8,25.5,367.9,24.5,369.9,24.5z M367.8,27.3v3c0,1.3,0.7,2,2.1,2
		c1.3,0,2.1-0.7,2.1-2v-3c0-1.3-0.7-2-2.1-2C368.5,25.3,367.8,26,367.8,27.3z M403.6,33h-0.4c-0.2,0-0.3-0.1-0.3-0.3v-7.6
		c0-0.3,0.2-0.5,0.5-0.5h0.3c0.3,0,0.4,0.1,0.6,0.4l3.6,6.4v-6.5c0-0.2,0.1-0.3,0.3-0.3h0.4c0.2,0,0.3,0.1,0.3,0.3v7.6
		c0,0.3-0.2,0.5-0.5,0.5h-0.3c-0.3,0-0.4-0.1-0.6-0.4l-3.7-6.4v6.5C403.9,32.9,403.8,33,403.6,33z M441.6,33h-1.9
		c-0.3,0-0.5-0.2-0.5-0.5v-7.4c0-0.3,0.2-0.5,0.5-0.5h1.9c2.4,0,3.6,1.1,3.6,3.3v1.8C445.2,31.9,444,33,441.6,33z M441.6,25.4h-1.4
		v6.7h1.4c1.7,0,2.5-0.8,2.5-2.4v-1.9C444.1,26.2,443.3,25.4,441.6,25.4z"/>
	<path id="svg_4" class="st3" d="M510.2,33h-4.4c-0.4,0-0.7-0.3-0.7-0.7v-7.2c0-0.3,0.2-0.5,0.5-0.5h1c0.3,0,0.5,0.2,0.5,0.5v6.4
		h3.1c0.3,0,0.4,0.2,0.4,0.4v0.7C510.7,32.8,510.5,33,510.2,33L510.2,33z M542.7,33.1c-2.1,0-3.3-1-3.3-2.9v-5.2
		c0-0.3,0.2-0.5,0.5-0.5h1c0.3,0,0.5,0.2,0.5,0.5v5.3c0,0.8,0.5,1.2,1.4,1.2s1.4-0.4,1.4-1.2v-5.3c0-0.3,0.2-0.5,0.5-0.5h1
		c0.3,0,0.5,0.2,0.5,0.5v5.2C546,32.1,544.8,33.1,542.7,33.1L542.7,33.1z M578.9,33.1c-2.2,0-3.4-1-3.4-2.9v-2.9
		c0-1.9,1.2-2.9,3.4-2.9c2.1,0,3.2,0.9,3.2,2.6v0.4c0,0.2-0.1,0.4-0.3,0.4h-1.3c-0.2,0-0.3-0.1-0.3-0.3v-0.3c0-0.9-0.4-1.2-1.3-1.2
		c-0.9,0-1.3,0.4-1.3,1.3v3.1c0,0.9,0.5,1.3,1.3,1.3c1,0,1.3-0.3,1.3-1.2V30c0-0.2,0.1-0.3,0.3-0.3h1.3c0.2,0,0.3,0.1,0.3,0.3v0.5
		C582.1,32.2,581,33.1,578.9,33.1z M613,33h-1c-0.3,0-0.5-0.2-0.5-0.5v-7.4c0-0.3,0.2-0.5,0.5-0.5h1c0.3,0,0.5,0.2,0.5,0.5v7.4
		C613.5,32.8,613.3,33,613,33z M617.7,33c-0.5,0.3-1.1,0.1-1.4-0.4l-2-3c-0.2-0.3-0.3-0.6-0.3-0.9s0.1-0.6,0.3-0.9l1.9-2.8
		c0.2-0.3,0.4-0.4,0.7-0.4h0.8c0.3,0,0.5,0.2,0.5,0.4c0,0.2-0.1,0.3-0.2,0.6l-2,3l2.1,3C618.4,32.1,618.2,32.7,617.7,33z"/>
	<g id="svg_5" class="st4">
		<path id="svg_6_00000032636219829855917850000002972515475157812900_" class="st5" d="M221.6,32.8c-1.1,0-2-0.9-2-2V28
			c0-1.1,0.9-2,2-2c1.1,0,2,0.9,2,2v2.9C223.6,31.9,222.7,32.8,221.6,32.8z M228.4,30.8c0,1.1,0.9,2,2,2c1.1,0,2-0.9,2-2V28
			c0-1.1-0.9-2-2-2c-1.1,0-2,0.9-2,2V30.8z"/>
		<path id="svg_7_00000103965790647262022740000006301766951234933636_" class="st5" d="M215,30.1c0.1-6.1,5.1-10.1,11-10.1
			s10.9,4,11,10.1v0.2c0,0.9-0.2,1.7-0.5,2.5c-0.3,0.8-0.8,1.5-1.4,2.1c-0.6,0.6-1.3,1.1-2.1,1.4c-0.8,0.3-1.7,0.5-2.5,0.5h-8.8
			c-3.6,0-6.6-3-6.6-6.6V30.1C215,30.1,215,30.1,215,30.1z M216.5,30.1v0.1c0,2.8,2.3,5.1,5.1,5.1h8.8c2.8,0,5.1-2.3,5.1-5.1v-0.1
			c-0.1-5.1-4.2-8.6-9.5-8.6S216.5,25,216.5,30.1L216.5,30.1z"/>
	</g>
	<g id="svg_8" class="st6">
		<path id="svg_9_00000002361180417854804130000013484378257119199630_" class="st5" d="M649.6,32.8c-1.1,0-2-0.9-2-2V28
			c0-1.1,0.9-2,2-2c1.1,0,2,0.9,2,2v2.9C651.6,31.9,650.7,32.8,649.6,32.8z M656.4,30.8c0,1.1,0.9,2,2,2c1.1,0,2-0.9,2-2V28
			c0-1.1-0.9-2-2-2c-1.1,0-2,0.9-2,2V30.8z"/>
		<path id="svg_10_00000021080006266492791870000005151612455376656272_" class="st5" d="M643,30.1c0.1-6.1,5.1-10.1,11-10.1
			c6,0,10.9,4,11,10.1v0.2c0,0.9-0.2,1.7-0.5,2.5c-0.3,0.8-0.8,1.5-1.4,2.1c-0.6,0.6-1.3,1.1-2.1,1.4c-0.8,0.3-1.7,0.5-2.5,0.5h-8.8
			c-3.7,0-6.6-3-6.6-6.6V30.1C643,30.1,643,30.1,643,30.1z M644.5,30.1v0.1c0,2.8,2.3,5.1,5.1,5.1h8.8c2.8,0,5.1-2.3,5.1-5.1v-0.1
			c-0.1-5.1-4.2-8.6-9.5-8.6C648.7,21.5,644.5,25,644.5,30.1L644.5,30.1z"/>
	</g>
</g>
</svg>
