<svg width="41" height="41" viewBox="0 0 41 41" fill="none" xmlns="http://www.w3.org/2000/svg">
<path d="M29.414 3.84316C23.7896 -0.650444 15.589 -0.611113 10.0039 3.94149C3.89773 8.91691 2.66862 17.3338 6.31661 23.7055C6.64109 24.2758 6.5231 25.0034 6.06095 25.4754L1.49851 30.0379C0.475897 31.0605 0.230076 32.6927 1.03637 33.8923C2.12781 35.5049 4.35004 35.6622 5.6578 34.3545L10.2989 29.7134C10.7709 29.2414 11.4985 29.1332 12.0787 29.4675C17.998 32.85 25.6873 32.0241 30.7414 26.97C37.2016 20.5098 36.7591 9.71337 29.414 3.84316ZM20.1219 28.4351L7.32939 15.6524C7.35889 14.4725 7.56538 13.3024 7.91936 12.1716L23.5929 27.8451C22.4621 28.2089 21.292 28.4056 20.1121 28.4351H20.1219ZM25.5595 27.0192L8.74532 10.2148C9.31562 9.1234 10.0433 8.10078 10.9577 7.18633C15.8151 2.32891 23.7207 2.32891 28.588 7.18633C33.4454 12.0438 33.4454 19.9494 28.588 24.8166C27.6735 25.7311 26.6509 26.4587 25.5595 27.029V27.0192ZM34.8515 29.9592C31.9508 29.9592 29.5909 32.3191 29.5909 35.2198C29.5909 38.1204 31.9508 40.4803 34.8515 40.4803C37.7522 40.4803 40.1121 38.1204 40.1121 35.2198C40.1121 32.3191 37.7522 29.9592 34.8515 29.9592ZM34.8515 38.5236C33.0324 38.5236 31.5575 37.0487 31.5575 35.2296C31.5575 33.4105 33.0324 31.9356 34.8515 31.9356C36.6706 31.9356 38.1455 33.4105 38.1455 35.2296C38.1455 37.0487 36.6706 38.5236 34.8515 38.5236Z" fill="url(#paint0_linear_1_6428)"/>
<defs>
<linearGradient id="paint0_linear_1_6428" x1="20.3341" y1="0.499802" x2="20.3341" y2="40.4803" gradientUnits="userSpaceOnUse">
<stop stop-color="#FF6864"/>
<stop offset="1" stop-color="#E90083"/>
</linearGradient>
</defs>
</svg>
