<svg width="40" height="41" viewBox="0 0 40 41" fill="none" xmlns="http://www.w3.org/2000/svg">
<path d="M20 0.5C8.97002 0.5 1.52588e-05 9.47 1.52588e-05 20.5C1.52588e-05 31.53 8.97002 40.5 20 40.5C31.03 40.5 40 31.53 40 20.5C40 9.47 31.03 0.5 20 0.5ZM11.61 5.59C9.33001 12.17 9.97002 19.44 13.51 25.57C13.58 25.69 13.66 25.81 13.73 25.93C13.56 26.04 13.4 26.16 13.24 26.26C13.11 26.34 12.98 26.41 12.85 26.48C12.56 26.65 12.27 26.81 11.98 26.96C11.82 27.04 11.65 27.11 11.49 27.19C11.22 27.32 10.94 27.44 10.66 27.56C10.48 27.63 10.3 27.7 10.11 27.77C9.96001 27.83 9.80001 27.88 9.65001 27.93C9.52001 27.72 9.40001 27.52 9.28001 27.31C5.99002 21.61 5.38002 14.94 7.55002 8.79C8.73002 7.53 10.1 6.45 11.61 5.6V5.59ZM37.12 20.5C37.12 20.56 37.12 20.63 37.12 20.69C32.58 15.44 26 12.37 18.95 12.35C18.95 12.16 18.93 11.96 18.94 11.77C18.94 11.61 18.96 11.45 18.96 11.29C18.97 10.96 18.99 10.64 19.02 10.31C19.04 10.12 19.07 9.94 19.09 9.75C19.13 9.46 19.17 9.16 19.22 8.87C19.26 8.68 19.3 8.48 19.34 8.29C19.38 8.13 19.42 7.97 19.46 7.81H19.47C26.07 7.81 32.16 10.63 36.4 15.61C36.86 17.16 37.12 18.8 37.12 20.5ZM35.96 26.63C35.76 26.38 35.55 26.14 35.33 25.91C35.19 25.76 35.05 25.61 34.91 25.46C34.64 25.19 34.37 24.93 34.09 24.67C33.95 24.55 33.82 24.42 33.68 24.3C33.67 24.29 33.65 24.27 33.64 24.26C33.44 24.09 33.22 23.93 33 23.76C32.76 23.57 32.52 23.37 32.26 23.19C31.76 22.83 31.24 22.5 30.71 22.19C30.68 22.17 30.64 22.16 30.61 22.14C30.23 21.92 29.84 21.72 29.45 21.53C29.3 21.46 29.15 21.39 29 21.33C28.71 21.2 28.42 21.07 28.12 20.96C28.05 20.93 27.98 20.9 27.91 20.87C27.76 20.81 27.6 20.76 27.45 20.71C27.34 20.67 27.23 20.63 27.12 20.59C26.37 20.34 25.6 20.13 24.83 19.98C24.78 19.97 24.72 19.96 24.67 19.95C24.33 19.88 24 19.83 23.66 19.78C23.58 19.77 23.5 19.76 23.42 19.75C23.09 19.71 22.77 19.68 22.44 19.65C22.37 19.65 22.29 19.64 22.22 19.63C21.82 19.61 21.42 19.59 21.02 19.59C20.89 19.59 20.77 19.59 20.64 19.59C20.61 19.53 20.58 19.47 20.56 19.41C20.51 19.3 20.47 19.19 20.42 19.08C20.29 18.78 20.16 18.48 20.04 18.17C19.98 18.01 19.94 17.86 19.88 17.7C19.77 17.37 19.66 17.04 19.57 16.7C19.52 16.51 19.48 16.33 19.43 16.14C19.36 15.83 19.29 15.51 19.23 15.19C19.2 14.99 19.16 14.8 19.13 14.6C19.11 14.47 19.1 14.35 19.09 14.22C26.17 14.29 32.72 17.69 36.88 23.38C36.69 24.51 36.39 25.6 35.99 26.65L35.96 26.63ZM20.01 5.97C20.06 5.85 20.1 5.73 20.15 5.6C20.2 5.46 20.25 5.32 20.31 5.19C20.4 4.98 20.49 4.78 20.59 4.58C20.65 4.45 20.71 4.32 20.77 4.19C20.89 3.95 21.02 3.72 21.15 3.48C21.15 3.46 21.17 3.44 21.18 3.43C26.61 3.8 31.36 6.7 34.22 10.98C30.19 7.85 25.26 6.08 20.01 5.97ZM19.09 3.42C19.06 3.48 19.04 3.54 19.01 3.6C18.91 3.8 18.82 4 18.73 4.21C18.66 4.36 18.6 4.51 18.54 4.66C18.45 4.87 18.37 5.09 18.29 5.31C18.24 5.45 18.19 5.59 18.14 5.73C18.06 5.97 17.98 6.21 17.91 6.45C17.89 6.51 17.87 6.58 17.85 6.64C17.84 6.68 17.83 6.72 17.82 6.76C17.53 7.78 17.33 8.82 17.21 9.86C17.21 9.93 17.2 9.99 17.19 10.06C17.08 11.15 17.06 12.24 17.13 13.33V13.35C17.13 13.35 17.13 13.36 17.13 13.37C17.17 14.02 17.25 14.66 17.36 15.3C17.36 15.32 17.36 15.35 17.37 15.37C17.58 16.57 17.9 17.75 18.34 18.9C18.37 18.97 18.38 19.04 18.41 19.11C18.43 19.15 18.45 19.19 18.47 19.24C18.64 19.66 18.81 20.08 19.01 20.49C18.98 20.55 18.94 20.6 18.91 20.65C18.66 21.05 18.4 21.43 18.12 21.8C18.02 21.94 17.91 22.07 17.8 22.2C17.58 22.48 17.35 22.76 17.12 23.02C16.99 23.17 16.85 23.31 16.71 23.45C16.48 23.69 16.25 23.92 16 24.15C15.85 24.29 15.7 24.43 15.54 24.56C15.44 24.64 15.34 24.72 15.24 24.8C15.21 24.74 15.17 24.68 15.14 24.62C11.56 18.42 11.19 10.96 14.07 4.45C15.65 3.86 17.34 3.5 19.11 3.41L19.09 3.42ZM7.67002 28.23C7.71002 28.31 7.76002 28.38 7.81002 28.45C7.79002 28.45 7.76002 28.45 7.74002 28.46C7.48002 28.52 7.23002 28.57 6.97002 28.61C6.83002 28.63 6.69002 28.65 6.55002 28.67C6.34002 28.7 6.13002 28.74 5.92002 28.76C5.64002 28.79 5.35002 28.81 5.06002 28.83C3.67002 26.36 2.88002 23.52 2.88002 20.49C2.88002 17.79 3.53002 15.24 4.64002 12.97C3.93002 18.19 4.95002 23.51 7.67002 28.22V28.23ZM6.40002 30.58C6.62002 30.55 6.83002 30.52 7.05002 30.49C7.20002 30.47 7.35002 30.44 7.51002 30.41C7.75002 30.37 7.99001 30.32 8.23001 30.26C8.36001 30.23 8.48001 30.2 8.61001 30.17C8.87001 30.11 9.13002 30.04 9.39002 29.97C9.44002 29.96 9.49002 29.94 9.55002 29.93C9.59002 29.92 9.62002 29.9 9.66002 29.89C10.68 29.58 11.67 29.19 12.62 28.73C12.67 28.7 12.72 28.68 12.78 28.65C13.72 28.18 14.61 27.63 15.46 27.01C15.49 26.99 15.53 26.96 15.57 26.94C15.61 26.91 15.64 26.88 15.67 26.86C16.14 26.5 16.61 26.13 17.05 25.73C17.12 25.66 17.19 25.59 17.27 25.52C17.66 25.16 18.04 24.78 18.4 24.39C18.47 24.32 18.54 24.25 18.6 24.17C18.96 23.76 19.3 23.33 19.63 22.89C19.71 22.78 19.79 22.67 19.87 22.56C20.13 22.19 20.38 21.82 20.62 21.43C20.67 21.43 20.72 21.43 20.78 21.43C20.87 21.43 20.96 21.43 21.04 21.43C21.27 21.43 21.5 21.43 21.74 21.44C21.79 21.44 21.83 21.44 21.88 21.44C22.08 21.44 22.27 21.46 22.47 21.48C22.66 21.5 22.86 21.52 23.05 21.54C23.31 21.57 23.56 21.6 23.81 21.64C23.99 21.67 24.17 21.7 24.34 21.74C24.59 21.79 24.85 21.84 25.1 21.9C25.3 21.95 25.5 22.01 25.7 22.06C25.89 22.11 26.08 22.16 26.27 22.22C26.19 22.36 26.13 22.5 26.05 22.64C25.82 23.04 25.57 23.44 25.32 23.83C25.24 23.96 25.14 24.08 25.06 24.2C24.88 24.45 24.71 24.71 24.52 24.96C24.41 25.1 24.3 25.24 24.18 25.38C24.01 25.6 23.83 25.82 23.65 26.03C23.53 26.18 23.39 26.31 23.26 26.45C23.08 26.65 22.91 26.85 22.72 27.04C22.58 27.18 22.44 27.32 22.3 27.45C22.12 27.63 21.94 27.81 21.75 27.98C21.6 28.12 21.44 28.25 21.29 28.38C21.1 28.54 20.92 28.71 20.72 28.86C20.56 28.99 20.39 29.11 20.22 29.24C20.03 29.39 19.83 29.54 19.63 29.68C19.46 29.8 19.28 29.91 19.11 30.03C18.91 30.16 18.71 30.3 18.51 30.43C18.33 30.54 18.14 30.65 17.96 30.75C17.76 30.87 17.55 30.99 17.34 31.1C17.15 31.2 16.95 31.3 16.76 31.39C16.55 31.49 16.34 31.6 16.13 31.7C15.93 31.79 15.73 31.88 15.52 31.96C15.31 32.05 15.09 32.15 14.88 32.23C14.68 32.31 14.47 32.38 14.26 32.46C14.04 32.54 13.82 32.62 13.6 32.69C13.39 32.76 13.18 32.82 12.96 32.88C12.73 32.95 12.51 33.01 12.28 33.07C12.06 33.13 11.85 33.17 11.63 33.22C11.4 33.27 11.17 33.32 10.94 33.37C10.72 33.41 10.5 33.45 10.28 33.48C10.05 33.52 9.81002 33.56 9.58002 33.59C9.42002 33.61 9.25002 33.62 9.09002 33.64C8.01002 32.74 7.06002 31.71 6.23002 30.58C6.29002 30.58 6.36002 30.56 6.42002 30.55L6.40002 30.58ZM11.42 35.19C11.71 35.13 11.99 35.07 12.28 35C12.46 34.96 12.65 34.91 12.83 34.86C13.11 34.79 13.39 34.71 13.67 34.62C13.85 34.57 14.03 34.51 14.2 34.46C14.49 34.37 14.77 34.27 15.05 34.16C15.21 34.1 15.38 34.04 15.54 33.98C15.85 33.86 16.15 33.73 16.45 33.6C16.58 33.54 16.71 33.49 16.84 33.43C17.7 33.04 18.53 32.59 19.33 32.1C19.46 32.02 19.58 31.94 19.71 31.86C19.98 31.69 20.25 31.52 20.51 31.33C20.66 31.23 20.81 31.12 20.95 31.01C21.18 30.84 21.41 30.67 21.64 30.49C21.79 30.37 21.94 30.24 22.09 30.12C22.3 29.94 22.52 29.76 22.72 29.58C22.87 29.45 23.02 29.31 23.16 29.18C23.36 28.99 23.56 28.8 23.75 28.61C23.89 28.47 24.03 28.33 24.17 28.18C24.36 27.98 24.55 27.77 24.73 27.56C24.86 27.41 24.99 27.27 25.12 27.11C25.31 26.89 25.49 26.66 25.67 26.43C25.79 26.28 25.9 26.14 26.02 25.99C26.21 25.73 26.39 25.47 26.58 25.21C26.67 25.08 26.77 24.95 26.85 24.82C27.12 24.42 27.37 24.01 27.61 23.59C27.74 23.37 27.86 23.14 27.99 22.91C28.15 22.98 28.32 23.05 28.48 23.13C28.56 23.17 28.64 23.2 28.72 23.24C29.07 23.41 29.42 23.59 29.76 23.79C30.3 24.1 30.82 24.45 31.32 24.81C31.42 24.89 31.53 24.96 31.63 25.04C31.7 25.09 31.76 25.16 31.83 25.21C31.63 25.6 31.44 26 31.23 26.38C31.01 26.76 30.78 27.14 30.54 27.5C30.47 27.6 30.4 27.7 30.33 27.8C30.15 28.06 29.98 28.32 29.79 28.57C29.7 28.69 29.61 28.8 29.52 28.91C29.34 29.14 29.17 29.37 28.99 29.58C28.89 29.69 28.79 29.8 28.7 29.91C28.52 30.12 28.33 30.34 28.14 30.54C28.03 30.66 27.91 30.77 27.79 30.89C27.61 31.08 27.42 31.27 27.23 31.45C27.11 31.57 26.98 31.68 26.85 31.79C26.66 31.96 26.47 32.14 26.28 32.3C26.15 32.41 26.01 32.51 25.88 32.62C25.68 32.78 25.49 32.94 25.29 33.09C25.14 33.2 24.99 33.3 24.85 33.4C24.65 33.54 24.46 33.68 24.25 33.82C24.1 33.92 23.94 34.02 23.78 34.11C23.58 34.24 23.38 34.37 23.17 34.49C23.01 34.58 22.84 34.67 22.67 34.76C22.46 34.87 22.26 34.99 22.05 35.1C21.88 35.19 21.71 35.26 21.54 35.34C21.33 35.44 21.12 35.54 20.9 35.64C20.72 35.72 20.54 35.79 20.36 35.86C20.14 35.95 19.93 36.04 19.71 36.12C19.53 36.19 19.34 36.25 19.16 36.31C18.94 36.39 18.72 36.46 18.49 36.53C18.3 36.59 18.11 36.63 17.92 36.69C17.69 36.75 17.47 36.82 17.24 36.88C17.05 36.93 16.86 36.96 16.67 37C16.46 37.05 16.24 37.09 16.03 37.13C14.33 36.73 12.74 36.07 11.28 35.2C11.32 35.2 11.36 35.18 11.4 35.17L11.42 35.19ZM21.67 37.35C21.72 37.33 21.77 37.3 21.82 37.28C22.37 37.04 22.9 36.77 23.43 36.49C23.55 36.42 23.67 36.36 23.79 36.29C24.34 35.98 24.88 35.65 25.4 35.3C25.49 35.24 25.57 35.18 25.66 35.12C26.13 34.8 26.58 34.46 27.03 34.1C27.12 34.03 27.22 33.96 27.31 33.88C27.8 33.48 28.27 33.06 28.72 32.61C28.81 32.52 28.91 32.42 29 32.33C29.41 31.92 29.81 31.49 30.2 31.04C30.25 30.98 30.31 30.92 30.36 30.86C30.77 30.37 31.17 29.86 31.54 29.33C31.63 29.21 31.71 29.09 31.79 28.97C32.16 28.43 32.53 27.87 32.86 27.29C33.02 27.02 33.17 26.74 33.31 26.47C33.71 26.87 34.11 27.28 34.47 27.71C34.55 27.8 34.62 27.91 34.7 28C34.84 28.17 34.96 28.36 35.1 28.54C32.38 33.6 27.19 37.14 21.16 37.54C21.33 37.47 21.5 37.41 21.67 37.33V37.35Z" fill="url(#paint0_linear_1_6436)"/>
<defs>
<linearGradient id="paint0_linear_1_6436" x1="20" y1="0.5" x2="20" y2="40.5" gradientUnits="userSpaceOnUse">
<stop stop-color="#FF6864"/>
<stop offset="1" stop-color="#E90083"/>
</linearGradient>
</defs>
</svg>
