<svg width="41" height="41" viewBox="0 0 41 41" fill="none" xmlns="http://www.w3.org/2000/svg">
<path d="M20.3333 0.5C9.30796 0.5 0.333344 9.47462 0.333344 20.5C0.333344 31.5254 9.30796 40.5 20.3333 40.5C31.3587 40.5 40.3333 31.5254 40.3333 20.5C40.3333 9.47462 31.3587 0.5 20.3333 0.5ZM20.3333 37.3528C11.0237 37.3528 3.48055 29.8096 3.48055 20.5C3.48055 11.1904 11.0237 3.64721 20.3333 3.64721C29.643 3.64721 37.1861 11.1904 37.1861 20.5C37.1861 29.8096 29.643 37.3528 20.3333 37.3528ZM10.6785 25.5051C10.6785 26.4594 9.90695 27.231 8.95263 27.231C7.99832 27.231 7.22674 26.4594 7.22674 25.5051C7.22674 24.5508 7.99832 23.7792 8.95263 23.7792C9.90695 23.7792 10.6785 24.5508 10.6785 25.5051ZM16.1811 30.5305C16.1811 31.4848 15.4095 32.2563 14.4552 32.2563C13.5009 32.2563 12.7293 31.4848 12.7293 30.5305C12.7293 29.5761 13.5009 28.8046 14.4552 28.8046C15.4095 28.8046 16.1811 29.5761 16.1811 30.5305ZM23.978 33.0888C23.978 34.0431 23.2064 34.8147 22.2521 34.8147C21.2978 34.8147 20.5262 34.0431 20.5262 33.0888C20.5262 32.1345 21.2978 31.3629 22.2521 31.3629C23.2064 31.3629 23.978 32.1345 23.978 33.0888ZM20.9222 28.5102C19.9679 28.5102 19.1963 27.7386 19.1963 26.7843C19.1963 25.8299 19.9679 25.0584 20.9222 25.0584C21.8765 25.0584 22.6481 25.8299 22.6481 26.7843C22.6481 27.7386 21.8765 28.5102 20.9222 28.5102ZM16.9019 23.3426C16.9019 24.297 16.1303 25.0685 15.176 25.0685C14.2217 25.0685 13.4501 24.297 13.4501 23.3426C13.4501 22.3883 14.2217 21.6167 15.176 21.6167C16.1303 21.6167 16.9019 22.3883 16.9019 23.3426Z" fill="url(#paint0_linear_1_6452)"/>
<defs>
<linearGradient id="paint0_linear_1_6452" x1="20.3333" y1="0.5" x2="20.3333" y2="40.5" gradientUnits="userSpaceOnUse">
<stop stop-color="#FF6864"/>
<stop offset="1" stop-color="#E90083"/>
</linearGradient>
</defs>
</svg>
