<?xml version="1.0" encoding="utf-8"?>
<!-- Generator: Adobe Illustrator 26.0.2, SVG Export Plug-In . SVG Version: 6.00 Build 0)  -->
<svg version="1.1" id="Layer_1" xmlns="http://www.w3.org/2000/svg" xmlns:xlink="http://www.w3.org/1999/xlink" x="0px" y="0px"
	 viewBox="0 0 50 43.8" style="enable-background:new 0 0 50 43.8;" xml:space="preserve">
<style type="text/css">
	.st0{fill:url(#SVGID_1_);}
</style>
<linearGradient id="SVGID_1_" gradientUnits="userSpaceOnUse" x1="24.9984" y1="45" x2="24.9984" y2="1.196" gradientTransform="matrix(1 0 0 -1 0 45)">
	<stop  offset="0" style="stop-color:#FF6864"/>
	<stop  offset="1" style="stop-color:#E90083"/>
</linearGradient>
<path class="st0" d="M49.7,40.9L26.7,1c-0.3-0.6-1-1-1.7-1c-0.7,0-1.3,0.4-1.7,1l-23.1,40c-0.3,0.6-0.3,1.3,0,1.9c0.3,0.6,1,1,1.7,1
	h46.2c0.7,0,1.3-0.4,1.7-1C50.1,42.3,50.1,41.5,49.7,40.9z M5.2,40L25,5.7L44.8,40H5.2z M16.9,35.2c0,1.7-1.3,3-3,3
	c-1.6,0-3-1.3-3-3c0-1.6,1.3-3,3-3S16.9,33.6,16.9,35.2z M28,35.2c0,1.7-1.3,3-3,3c-1.6,0-3-1.3-3-3c0-1.6,1.3-3,3-3
	C26.7,32.2,28,33.6,28,35.2z M25,15c1.7,0,3,1.3,3,3s-1.3,3-3,3c-1.6,0-3-1.3-3-3C22,16.3,23.4,15,25,15z M33.1,35.2
	c0-1.7,1.3-3,3-3s3,1.3,3,3s-1.3,3-3,3S33.1,36.9,33.1,35.2z M22.4,26.6c0,1.7-1.3,3-3,3c-1.6,0-3-1.3-3-3c0-1.6,1.3-3,3-3
	C21.1,23.6,22.4,24.9,22.4,26.6z M27.6,26.6c0-1.7,1.3-3,3-3s3,1.3,3,3s-1.3,3-3,3C28.9,29.6,27.6,28.2,27.6,26.6z"/>
</svg>
