<svg width="42" height="41" viewBox="0 0 42 41" fill="none" xmlns="http://www.w3.org/2000/svg">
<path d="M34.2716 4.21909C31.1313 1.90455 27.8544 1.12314 25.2992 2.0727C24.6458 2.31009 24.0216 2.62661 23.4267 2.99258C23.2804 2.60682 23.0756 2.26063 22.8318 1.97379C21.5835 0.460433 18.8235 -0.231951 15.4978 1.64738C9.46095 5.04995 6.82774 13.1805 7.27637 19.4515L2.09773 24.5356C-1.58876 28.1558 0.58607 33.1113 3.8532 36.5336C5.96951 38.7493 8.71975 40.5198 11.4017 40.5198C12.8646 40.5198 14.3178 39.9857 15.6246 38.7097L20.7447 33.685C24.441 33.5069 31.2971 30.5396 35.8515 26.3556C39.2162 23.2596 41.0594 19.7779 41.1667 16.2863C41.3227 11.5781 37.8118 6.84026 34.2716 4.23887V4.21909ZM5.90125 25.0499C6.55467 27.1766 8.25163 29.3328 9.89982 31.0242C10.0168 31.1429 10.0851 31.3111 10.0851 31.4792C10.0851 31.6474 10.0169 31.8155 9.89007 31.9342L9.44145 32.3694C9.31466 32.498 9.14887 32.5574 8.97332 32.5574C8.79777 32.5574 8.63198 32.4782 8.50519 32.3497C6.15481 29.8769 4.72118 27.6909 4.52613 26.3952L5.90125 25.0499ZM13.518 36.4842C10.9629 38.9965 7.42265 35.8511 6.02803 34.3872C4.94549 33.2498 2.91695 30.777 3.24853 28.5613C3.97023 30.045 5.25757 31.776 7.11057 33.7245C7.5982 34.2389 8.25163 34.5257 8.94406 34.5356C8.96357 34.5356 8.97332 34.5356 8.99283 34.5356C9.67551 34.5356 10.3192 34.2685 10.8068 33.7938L11.2554 33.3586C11.7528 32.864 12.0356 32.2112 12.0454 31.5089C12.0454 30.8066 11.7918 30.1439 11.3042 29.6395C8.92456 27.1963 7.63721 24.9609 7.61771 23.3783L8.1541 22.8541C8.1541 22.8541 8.20286 22.953 8.22237 23.0025C8.25163 23.0717 8.29064 23.1409 8.31989 23.2003C8.45643 23.4772 8.59297 23.7542 8.74901 24.041C8.77827 24.0905 8.79777 24.1301 8.82703 24.1795C9.00258 24.496 9.19763 24.8225 9.40244 25.139C9.4512 25.2082 9.49021 25.2873 9.53897 25.3566C9.73402 25.6533 9.92908 25.95 10.1436 26.2468C10.1631 26.2863 10.1924 26.316 10.2119 26.3556C10.446 26.682 10.6898 26.9985 10.9433 27.315C11.0019 27.3843 11.0604 27.4634 11.1189 27.5326C11.3627 27.8393 11.6065 28.136 11.8698 28.4228C11.8894 28.4426 11.8991 28.4624 11.9186 28.4822C12.1917 28.7888 12.4745 29.0856 12.7573 29.3823C12.8256 29.4515 12.8939 29.5208 12.9621 29.59C13.2547 29.8769 13.5473 30.1637 13.8399 30.4308C14.1422 30.6978 14.4445 30.955 14.7469 31.1924C14.8151 31.2517 14.8932 31.3111 14.9614 31.3605C15.2638 31.5979 15.5758 31.8254 15.8879 32.0331C15.9074 32.043 15.9172 32.0529 15.9367 32.0628C16.2293 32.2606 16.5316 32.4387 16.8242 32.5969C16.9022 32.6365 16.9705 32.6761 17.0485 32.7156C17.1168 32.7552 17.185 32.7948 17.2533 32.8244L13.5375 36.4743L13.518 36.4842ZM33.8132 24.0608C29.132 28.3635 22.3539 30.7374 20.2181 30.6088C16.8047 30.3912 10.7385 23.2695 10.3387 19.8571C9.70477 14.4169 12.0064 7.10732 16.9607 4.318C17.9555 3.7542 18.7845 3.55638 19.3891 3.55638C19.9548 3.55638 20.3351 3.72453 20.5107 3.93224C20.8228 4.30811 20.5984 5.08951 19.9548 5.90059C17.6336 8.41296 16.2585 11.1034 16.161 11.2814C15.7806 12.0331 16.0732 12.953 16.8144 13.3487C17.5556 13.7344 18.4626 13.4377 18.8527 12.686C18.8722 12.6464 20.1303 10.2132 22.1296 8.01731C22.1784 7.96785 22.2271 7.9184 22.2661 7.86894C23.4169 6.64243 24.8018 5.50494 26.333 4.94114C27.9129 4.35756 30.2145 5.01038 32.4966 6.69189C35.871 9.17458 38.2409 13.1508 38.1434 16.1578C38.0361 19.501 35.7247 22.3002 33.8132 24.0608Z" fill="url(#paint0_linear_1_6444)"/>
<defs>
<linearGradient id="paint0_linear_1_6444" x1="20.6716" y1="0.510345" x2="20.6716" y2="40.5198" gradientUnits="userSpaceOnUse">
<stop stop-color="#FF6864"/>
<stop offset="1" stop-color="#E90083"/>
</linearGradient>
</defs>
</svg>
