<svg width="50" height="41" viewBox="0 0 50 41" fill="none" xmlns="http://www.w3.org/2000/svg">
<path d="M-0.294922 8.90814H5.30115L7.46104 22.8072L9.6069 8.90814H15.203V31.7553H11.7107V14.3359L9.01784 31.7553H5.86216L3.18334 14.3359V31.7553H-0.294922V8.90814ZM17.8678 8.90814H23.4638L25.6237 22.8072L27.7696 8.90814H33.3657V31.7553H29.8734V14.3359L27.1805 31.7553H24.0249L21.346 14.3359V31.7553H17.8537V8.90814H17.8678ZM44.5438 27.9825H39.7051L39.0319 31.7553H34.684L39.8594 8.90814H44.5017L49.677 31.7553H45.217L44.5298 27.9825H44.5438ZM43.6602 23.0456L42.1455 14.8268L40.6448 23.0456H43.6742H43.6602ZM26.2829 0.787521H-0.294922V5.14937H26.2829V0.787521ZM49.7051 35.8506H23.1272V40.2125H49.7051V35.8506Z" fill="url(#paint0_linear_1_6460)"/>
<defs>
<linearGradient id="paint0_linear_1_6460" x1="24.7051" y1="0.787521" x2="24.7051" y2="40.2125" gradientUnits="userSpaceOnUse">
<stop stop-color="#FF6864"/>
<stop offset="1" stop-color="#E90083"/>
</linearGradient>
</defs>
</svg>
